<?xml version="1.0" encoding="utf-8"?>
<!-- Generator: Adobe Illustrator 18.0.0, SVG Export Plug-In . SVG Version: 6.00 Build 0)  -->
<!DOCTYPE svg PUBLIC "-//W3C//DTD SVG 1.1//EN" "http://www.w3.org/Graphics/SVG/1.1/DTD/svg11.dtd">
<svg version="1.1" id="Layer_1" xmlns="http://www.w3.org/2000/svg" xmlns:xlink="http://www.w3.org/1999/xlink" x="0px" y="0px"
	 viewBox="0 984.4 595.3 207.4" enable-background="new 0 984.4 595.3 207.4" xml:space="preserve">
<g>
	<g>
		<path fill="#FFFFFF" d="M120.5,1085.5c-0.1-15,12.3-22.3,12.8-22.7c-7-10.3-18-11.7-21.8-11.8c-9.2-1-18.1,5.5-22.7,5.5
			c-4.8,0-12-5.4-19.7-5.2c-9.9,0.2-19.3,5.9-24.4,14.9c-10.6,18.3-2.7,45.1,7.4,59.9c5.1,7.2,11,15.3,18.7,15.1
			c7.6-0.3,10.4-4.8,19.5-4.8c9.1,0,11.7,4.8,19.6,4.7c8.1-0.1,13.3-7.3,18.1-14.6c5.9-8.3,8.2-16.5,8.3-16.9
			C136.2,1109.5,120.6,1103.6,120.5,1085.5z"/>
		<path fill="#FFFFFF" d="M105.6,1041.4c4.1-5.1,6.9-12,6.1-19.1c-5.9,0.2-13.3,4.1-17.5,9.1c-3.8,4.4-7.1,11.6-6.2,18.4
			C94.5,1050.2,101.3,1046.4,105.6,1041.4z"/>
	</g>
</g>
<g>
	<path fill="#FFFFFF" d="M230,1140.2h-10.6l-5.8-18.2h-20.1l-5.5,18.2h-10.3l19.9-62H210L230,1140.2z M211.9,1114.3l-5.2-16.2
		c-0.6-1.6-1.6-5.5-3.1-11.7h-0.2c-0.6,2.6-1.6,6.5-3,11.7l-5.2,16.2H211.9z"/>
	<path fill="#FFFFFF" d="M281.3,1117.3c0,7.6-2,13.6-6.2,18c-3.7,4-8.3,5.9-13.7,5.9c-5.9,0-10.1-2.1-12.7-6.3h-0.2v23.5h-9.9v-48.2
		c0-4.8-0.1-9.7-0.3-14.7h8.7l0.6,7.1h0.2c3.3-5.3,8.3-8,15.1-8c5.3,0,9.7,2.1,13.2,6.3C279.6,1104.9,281.3,1110.5,281.3,1117.3z
		 M271.2,1117.6c0-4.4-1-8-3-10.8c-2.2-3-5.1-4.4-8.7-4.4c-2.4,0-4.7,0.8-6.7,2.4c-2,1.6-3.3,3.8-3.9,6.4c-0.3,1.2-0.5,2.2-0.5,3
		v7.4c0,3.3,1,6,3,8.3c2,2.3,4.6,3.4,7.8,3.4c3.7,0,6.6-1.5,8.7-4.3C270.1,1126.2,271.2,1122.3,271.2,1117.6z"/>
	<path fill="#FFFFFF" d="M332.8,1117.3c0,7.6-2,13.6-6.2,18c-3.7,4-8.3,5.9-13.7,5.9c-5.9,0-10.1-2.1-12.7-6.3H300v23.5h-9.9v-48.2
		c0-4.8-0.1-9.7-0.3-14.7h8.7l0.6,7.1h0.2c3.3-5.3,8.3-8,15.1-8c5.3,0,9.7,2.1,13.2,6.3C331,1104.9,332.8,1110.5,332.8,1117.3z
		 M322.6,1117.6c0-4.4-1-8-3-10.8c-2.2-3-5-4.4-8.7-4.4c-2.4,0-4.7,0.8-6.7,2.4c-2,1.6-3.3,3.8-3.9,6.4c-0.3,1.2-0.5,2.2-0.5,3v7.4
		c0,3.3,1,6,3,8.3c2,2.2,4.6,3.4,7.8,3.4c3.7,0,6.6-1.5,8.7-4.3C321.6,1126.2,322.6,1122.3,322.6,1117.6z"/>
	<path fill="#FFFFFF" d="M390.2,1122.8c0,5.3-1.8,9.6-5.5,12.8c-4,3.6-9.7,5.4-16.9,5.4c-6.7,0-12-1.3-16-3.8l2.3-8.3
		c4.4,2.6,9.1,4,14.4,4c3.7,0,6.6-0.9,8.7-2.6c2.1-1.7,3.1-4,3.1-6.8c0-2.5-0.9-4.7-2.6-6.3c-1.7-1.7-4.6-3.3-8.5-4.8
		c-10.9-4.1-16.3-10-16.3-17.8c0-5.1,1.9-9.3,5.7-12.5c3.8-3.3,8.8-4.9,15.2-4.9c5.6,0,10.3,1,14.1,3l-2.5,8.1
		c-3.5-1.9-7.4-2.8-11.9-2.8c-3.5,0-6.2,0.9-8.2,2.6c-1.6,1.5-2.5,3.4-2.5,5.6c0,2.4,0.9,4.5,2.8,6c1.6,1.5,4.7,3.1,9,4.8
		c5.3,2.2,9.2,4.7,11.7,7.6C389,1114.9,390.2,1118.5,390.2,1122.8z"/>
	<path fill="#FFFFFF" d="M423.1,1102.9h-10.9v21.7c0,5.5,1.9,8.3,5.8,8.3c1.8,0,3.3-0.2,4.4-0.5l0.3,7.6c-2,0.8-4.5,1.1-7.7,1.1
		c-3.9,0-7-1.2-9.2-3.6c-2.2-2.4-3.3-6.4-3.3-12v-22.6h-6.5v-7.4h6.5v-8.2l9.8-3v11.1h10.9C423.1,1095.5,423.1,1102.9,423.1,1102.9z
		"/>
	<path fill="#FFFFFF" d="M472.4,1117.4c0,6.9-2,12.5-5.9,16.9c-4.1,4.5-9.6,6.8-16.4,6.8c-6.6,0-11.8-2.2-15.7-6.5
		s-5.8-9.8-5.8-16.5c0-6.9,2-12.6,6-17c4-4.4,9.4-6.6,16.2-6.6c6.6,0,11.9,2.2,15.8,6.5C470.6,1105.3,472.4,1110.8,472.4,1117.4z
		 M462.2,1117.7c0-4.1-0.9-7.7-2.7-10.6c-2.1-3.5-5.1-5.3-8.9-5.3c-4,0-7,1.8-9.1,5.3c-1.8,3-2.7,6.6-2.7,10.8
		c0,4.1,0.9,7.7,2.7,10.6c2.2,3.5,5.2,5.3,9,5.3c3.8,0,6.7-1.8,8.9-5.5C461.2,1125.5,462.2,1121.9,462.2,1117.7z"/>
	<path fill="#FFFFFF" d="M504.8,1104.2c-1-0.2-2-0.3-3.1-0.3c-3.5,0-6.2,1.3-8.1,4c-1.6,2.3-2.5,5.3-2.5,8.8v23.4h-9.9l0.1-30.6
		c0-5.2-0.1-9.8-0.3-14.1h8.6l0.3,8.5h0.3c1-3,2.7-5.3,4.9-7.1c2.2-1.6,4.6-2.4,7.2-2.4c0.9,0,1.7,0.1,2.5,0.2
		C504.8,1094.7,504.8,1104.2,504.8,1104.2z"/>
	<path fill="#FFFFFF" d="M549.2,1115.7c0,1.8-0.1,3.3-0.3,4.5H519c0.1,4.4,1.6,7.8,4.3,10.1c2.5,2.1,5.8,3.1,9.8,3.1
		c4.4,0,8.4-0.7,12-2.1l1.6,6.9c-4.2,1.9-9.2,2.8-15,2.8c-6.9,0-12.4-2-16.3-6.1c-4-4.1-5.9-9.5-5.9-16.4c0-6.7,1.9-12.4,5.5-16.9
		c3.8-4.8,9.1-7.2,15.6-7.2c6.5,0,11.3,2.4,14.6,7.2C547.8,1105.4,549.2,1110.1,549.2,1115.7z M539.7,1113.1c0.1-3-0.6-5.5-1.9-7.6
		c-1.7-2.8-4.4-4.1-7.9-4.1c-3.3,0-5.9,1.3-7.9,4.1c-1.6,2.2-2.6,4.7-3,7.7L539.7,1113.1L539.7,1113.1z"/>
</g>
<g>
	<path fill="#FFFFFF" d="M189.4,1020.9h4.4l11.7,30h-4.4l-3.3-9h-12.7l-3.4,9h-4.1L189.4,1020.9z M186.4,1038.5h10.2l-5-14h-0.1
		L186.4,1038.5z"/>
	<path fill="#FFFFFF" d="M216.9,1050.9h-3.8l-8.1-21.7h4l6.1,18.1h0.1l5.9-18.1h3.7L216.9,1050.9z"/>
	<path fill="#FFFFFF" d="M247.4,1050.8c-0.6,0.4-1.4,0.6-2.6,0.6c-1.8,0-3-1-3-3.4c-2,2.3-4.6,3.4-7.6,3.4c-3.9,0-7.2-1.8-7.2-6.1
		c0-4.9,3.7-6,7.4-6.7c3.9-0.8,7.3-0.5,7.3-3.2c0-3.1-2.6-3.6-4.8-3.6c-3,0-5.3,0.9-5.4,4.1h-3.6c0.2-5.4,4.4-7.3,9.2-7.3
		c3.9,0,8.1,0.9,8.1,6v11.2c0,1.7,0,2.4,1.1,2.4c0.3,0,0.6,0,1.1-0.2V1050.8z M241.6,1039.7c-1.4,1-4.1,1-6.5,1.5
		c-2.4,0.4-4.4,1.3-4.4,3.9c0,2.4,2,3.2,4.2,3.2c4.7,0,6.6-2.9,6.6-4.9V1039.7z"/>
	<path fill="#FFFFFF" d="M254.5,1025.3h-3.6v-4.4h3.6V1025.3z M250.9,1029.2h3.6v21.7h-3.6V1029.2z"/>
	<path fill="#FFFFFF" d="M260.2,1020.9h3.6v30h-3.6V1020.9z"/>
	<path fill="#FFFFFF" d="M288.6,1050.8c-0.6,0.4-1.4,0.6-2.6,0.6c-1.8,0-3-1-3-3.4c-2,2.3-4.6,3.4-7.6,3.4c-3.9,0-7.2-1.8-7.2-6.1
		c0-4.9,3.7-6,7.4-6.7c3.9-0.8,7.3-0.5,7.3-3.2c0-3.1-2.6-3.6-4.8-3.6c-3,0-5.3,0.9-5.4,4.1H269c0.2-5.4,4.4-7.3,9.2-7.3
		c3.9,0,8.1,0.9,8.1,6v11.2c0,1.7,0,2.4,1.1,2.4c0.3,0,0.6,0,1.1-0.2V1050.8z M282.8,1039.7c-1.4,1-4.1,1-6.5,1.5
		c-2.4,0.4-4.4,1.3-4.4,3.9c0,2.4,2,3.2,4.2,3.2c4.7,0,6.6-2.9,6.6-4.9V1039.7z"/>
	<path fill="#FFFFFF" d="M292,1020.9h3.6v11.2h0.1c1.2-2.4,3.9-3.4,6.9-3.4c6.7,0,10,5.3,10,11.4s-3.3,11.3-9.9,11.3
		c-2.2,0-5.4-0.8-7-3.4h-0.1v2.9H292V1020.9z M302.1,1031.8c-4.8,0-6.6,4.1-6.6,8.2c0,4.3,1.9,8.2,6.8,8.2c4.9,0,6.5-4.2,6.5-8.4
		C308.8,1035.8,306.7,1031.8,302.1,1031.8z"/>
	<path fill="#FFFFFF" d="M317,1020.9h3.6v30H317V1020.9z"/>
	<path fill="#FFFFFF" d="M344.7,1044c-1,4.8-4.4,7.4-9.3,7.4c-6.9,0-10.2-4.8-10.4-11.4c0-6.5,4.3-11.3,10.2-11.3
		c7.7,0,10,7.2,9.8,12.4h-16.3c-0.1,3.8,2,7.1,6.8,7.1c2.9,0,5-1.4,5.6-4.2H344.7z M341.2,1037.9c-0.2-3.4-2.7-6.1-6.3-6.1
		c-3.7,0-6,2.8-6.2,6.1H341.2z"/>
	<path fill="#FFFFFF" d="M369.7,1028.7c6.9,0,10.5,5,10.5,11.4c0,6.3-3.7,11.3-10.5,11.3c-6.9,0-10.5-5-10.5-11.3
		C359.2,1033.7,362.8,1028.7,369.7,1028.7z M369.7,1048.2c3.7,0,6.8-2.9,6.8-8.2c0-5.3-3-8.2-6.8-8.2c-3.7,0-6.8,2.9-6.8,8.2
		C363,1045.3,366,1048.2,369.7,1048.2z"/>
	<path fill="#FFFFFF" d="M384.5,1029.2h3.4v3.4h0.1c1.5-2.7,3.9-3.9,7.1-3.9c5.7,0,7.5,3.3,7.5,7.9v14.3h-3.6v-14.7
		c0-2.6-1.7-4.4-4.4-4.4c-4.3,0-6.4,2.9-6.4,6.8v12.3h-3.6V1029.2z"/>
	<path fill="#FFFFFF" d="M424.5,1029.2h4.3v3.2h-4.3v13.5c0,1.6,0.5,1.9,2.7,1.9h1.6v3.2H426c-3.7,0-5.2-0.8-5.2-4.7v-13.8h-3.7
		v-3.2h3.7v-6.5h3.6V1029.2z"/>
	<path fill="#FFFFFF" d="M432.7,1020.9h3.6v11.5h0.1c1.2-2.6,4.2-3.7,6.8-3.7c5.7,0,7.5,3.3,7.5,7.9v14.3h-3.6v-14.7
		c0-2.6-1.7-4.4-4.4-4.4c-4.3,0-6.4,2.9-6.4,6.8v12.3h-3.6V1020.9z"/>
	<path fill="#FFFFFF" d="M474.6,1044c-1,4.8-4.4,7.4-9.3,7.4c-6.9,0-10.2-4.8-10.4-11.4c0-6.5,4.3-11.3,10.2-11.3
		c7.7,0,10,7.2,9.8,12.4h-16.3c-0.1,3.8,2,7.1,6.8,7.1c2.9,0,5-1.4,5.6-4.2H474.6z M471.2,1037.9c-0.2-3.4-2.7-6.1-6.3-6.1
		c-3.7,0-6,2.8-6.2,6.1H471.2z"/>
</g>
<path fill="#FFFFFF" d="M562.2,1191.9H33.1c-18.2,0-33.1-14.6-33.1-32.6v-142.1c0-18,14.8-32.6,33.1-32.6h529.1
	c18.2,0,33.1,14.6,33.1,32.6v142.1C595.3,1177.2,580.4,1191.9,562.2,1191.9z M33.1,990.4c-14.9,0-27.1,12-27.1,26.7v142.1
	c0,14.7,12.1,26.7,27.1,26.7h529.1c14.9,0,27.1-12,27.1-26.7v-142.1c0-14.7-12.1-26.7-27.1-26.7H33.1z"/>
</svg>
