<?xml version="1.0" encoding="utf-8"?>
<!-- Generator: Adobe Illustrator 18.0.0, SVG Export Plug-In . SVG Version: 6.00 Build 0)  -->
<!DOCTYPE svg PUBLIC "-//W3C//DTD SVG 1.1//EN" "http://www.w3.org/Graphics/SVG/1.1/DTD/svg11.dtd">
<svg version="1.1" id="Layer_1" xmlns="http://www.w3.org/2000/svg" xmlns:xlink="http://www.w3.org/1999/xlink" x="0px" y="0px"
	 viewBox="0 667.2 1024 356.8" enable-background="new 0 667.2 1024 356.8" xml:space="preserve">
<path fill="#3F3C3A" d="M966.1,1024v-9.1c9.1,0,17.3-1.8,24.6-5l4.1,8.2C986.2,1021.7,976.6,1024,966.1,1024z M938.8,1024h-27.3
	v-9.1h27.3V1024z M884.1,1024h-27.3v-9.1h27.3V1024z M829,1024h-27.3v-9.1H829V1024z M774.3,1024H747v-9.1h27.3V1024z M719.6,1024
	h-27.3v-9.1h27.3V1024z M664.4,1024h-27.3v-9.1h27.3V1024z M609.8,1024h-27.3v-9.1h27.3V1024z M555.1,1024h-27.3v-9.1h27.3V1024z
	 M499.9,1024h-27.3v-9.1h27.3V1024z M445.2,1024h-27.3v-9.1h27.3V1024z M390.1,1024h-27.3v-9.1h27.3V1024z M335.4,1024h-27.3v-9.1
	h27.3V1024z M280.7,1024h-27.3v-9.1h27.3V1024z M225.6,1024h-27.3v-9.1h27.3V1024z M170.9,1024h-27.3v-9.1h27.3V1024z M116.2,1024
	H88.9v-9.1h27.3V1024z M61.1,1024h-0.9c-9.6,0-19.1-2.3-27.8-6.8l4.6-8.2c7.3,3.6,15,5.9,23.7,5.9h0.9v9.1H61.1z M1016.7,998
	l-7.7-4.6c4.1-6.8,5.9-15,5.9-23.7l9.1-0.5v0.5C1024,979.8,1021.7,989.4,1016.7,998z M10.5,997.6C5,989.4,1.4,979.8,0,970.2l9.1-0.9
	c0.9,8.2,4.1,16.4,8.7,23.2L10.5,997.6z M9.1,942.4H0v-27.3h9.1V942.4z M1024,941.5h-9.1v-27.3h9.1V941.5z M9.1,887.3H0V860h9.1
	V887.3z M1024,886.8h-9.1v-27.3h9.1V886.8z M9.1,832.6H0v-27.3h9.1V832.6z M1024,832.2h-9.1v-27.3h9.1V832.2z M9.1,777.9H0v-27.3
	h9.1V777.9z M1024,777h-9.1v-27.3h9.1V777z M9.1,723.2L0,722.3c0.9-9.6,4.1-19.1,9.6-27.8l7.7,5C12.8,706.8,10,715,9.1,723.2z
	 M1014.9,722.8c-0.9-8.7-3.6-16.9-7.7-23.7l7.7-5c5,8.2,8.2,17.8,9.1,27.8L1014.9,722.8z M35.5,682.7l-4.6-8.2
	c8.7-4.6,18.7-7.3,28.3-7.3v9.1C51,676.3,42.8,678.6,35.5,682.7z M988.9,681.8c-6.8-3.6-14.6-5.5-22.8-5.5h-1.4v-9.1h1.4
	c9.6,0,18.7,2.3,27.3,6.8L988.9,681.8z M937.4,676.3h-27.3v-9.1h27.3V676.3z M882.3,676.3H855v-9.1h27.3V676.3z M827.6,676.3h-27.3
	v-9.1h27.3V676.3z M772.9,676.3h-27.3v-9.1h27.3V676.3z M717.8,676.3h-27.3v-9.1h27.3V676.3z M663.1,676.3h-27.3v-9.1h27.3V676.3z
	 M608.4,676.3H581v-9.1h27.3v9.1H608.4z M553.2,676.3h-27.3v-9.1h27.3V676.3z M498.6,676.3h-27.3v-9.1h27.3V676.3z M443.4,676.3
	h-27.3v-9.1h27.3V676.3z M388.7,676.3h-27.3v-9.1h27.3V676.3z M334,676.3h-27.3v-9.1H334V676.3z M278.9,676.3h-27.3v-9.1h27.3V676.3
	z M224.2,676.3h-27.3v-9.1h27.3V676.3z M169.5,676.3h-27.3v-9.1h27.3V676.3z M114.4,676.3H87v-9.1h27.3L114.4,676.3L114.4,676.3z"/>
<g>
	<g>
		<path fill="#3F3C3A" d="M207.2,841.1c-0.2-25.8,21.1-38.4,22.1-39c-12.1-17.7-30.9-20.1-37.5-20.3c-15.8-1.7-31.1,9.4-39.1,9.4
			c-8.2,0-20.6-9.3-33.9-9c-17.1,0.3-33.2,10.2-42,25.6c-18.2,31.4-4.6,77.6,12.8,103c8.7,12.4,18.9,26.3,32.2,25.9
			c13-0.5,17.9-8.3,33.6-8.3c15.6,0,20.1,8.3,33.7,8c14-0.2,22.8-12.5,31.2-25.1c10.1-14.3,14.1-28.3,14.3-29
			C234.3,882.3,207.5,872.1,207.2,841.1z"/>
		<path fill="#3F3C3A" d="M181.6,765.2c7-8.8,11.8-20.7,10.5-32.8c-10.1,0.4-22.8,7-30.1,15.6c-6.5,7.5-12.2,19.9-10.7,31.6
			C162.6,780.4,174.3,773.8,181.6,765.2z"/>
	</g>
</g>
<g>
	<path fill="#3F3C3A" d="M395.7,935.1h-18.2l-10-31.3h-34.6l-9.5,31.3h-17.7L340,828.4h21.2L395.7,935.1z M364.5,890.6l-9-27.8
		c-1-2.8-2.7-9.5-5.4-20.1h-0.3c-1,4.5-2.7,11.2-5.1,20.1l-8.9,27.8H364.5z"/>
	<path fill="#3F3C3A" d="M483.9,895.7c0,13.1-3.5,23.4-10.6,31c-6.3,6.8-14.2,10.1-23.6,10.1c-10.1,0-17.4-3.6-21.8-10.9h-0.3v40.5
		h-17.1v-82.9c0-8.2-0.2-16.7-0.6-25.3h15l1,12.2h0.3c5.7-9.2,14.3-13.8,25.9-13.8c9.1,0,16.6,3.6,22.7,10.8
		C480.9,874.5,483.9,884,483.9,895.7z M466.5,896.3c0-7.5-1.7-13.7-5.1-18.5c-3.7-5.1-8.7-7.6-14.9-7.6c-4.2,0-8,1.4-11.5,4.2
		c-3.4,2.8-5.7,6.5-6.7,11c-0.5,2.1-0.8,3.8-0.8,5.2v12.8c0,5.6,1.7,10.3,5.1,14.2s7.9,5.8,13.4,5.8c6.4,0,11.4-2.5,15-7.4
		C464.7,911,466.5,904.4,466.5,896.3z"/>
	<path fill="#3F3C3A" d="M572.4,895.7c0,13.1-3.5,23.4-10.6,31c-6.3,6.8-14.2,10.1-23.6,10.1c-10.1,0-17.4-3.6-21.8-10.9h-0.3v40.5
		H499v-82.9c0-8.2-0.2-16.7-0.6-25.3h15l1,12.2h0.3c5.7-9.2,14.3-13.8,25.9-13.8c9.1,0,16.6,3.6,22.7,10.8
		C569.3,874.5,572.4,884,572.4,895.7z M555,896.3c0-7.5-1.7-13.7-5.1-18.5c-3.7-5.1-8.6-7.6-14.9-7.6c-4.2,0-8,1.4-11.5,4.2
		c-3.4,2.8-5.7,6.5-6.7,11c-0.5,2.1-0.8,3.8-0.8,5.2v12.8c0,5.6,1.7,10.3,5.1,14.2c3.4,3.8,7.9,5.8,13.4,5.8c6.4,0,11.4-2.5,15-7.4
		C553.2,911,555,904.4,555,896.3z"/>
	<path fill="#3F3C3A" d="M671.3,905.2c0,9.1-3.1,16.5-9.5,22.1c-6.9,6.2-16.6,9.3-29,9.3c-11.5,0-20.7-2.2-27.6-6.6l4-14.2
		c7.5,4.5,15.7,6.8,24.7,6.8c6.4,0,11.4-1.5,15-4.4s5.4-6.8,5.4-11.7c0-4.3-1.5-8-4.4-10.9c-2.9-3-7.9-5.7-14.7-8.2
		c-18.7-7-28-17.2-28-30.6c0-8.8,3.3-16,9.8-21.5c6.5-5.6,15.2-8.4,26.1-8.4c9.7,0,17.8,1.7,24.2,5.1l-4.3,13.9
		c-6-3.3-12.8-4.9-20.4-4.9c-6,0-10.7,1.5-14.1,4.4c-2.8,2.6-4.3,5.8-4.3,9.7c0,4.2,1.6,7.7,4.9,10.4c2.8,2.5,8,5.3,15.5,8.2
		c9.2,3.7,15.9,8,20.2,13C669.1,891.6,671.3,897.8,671.3,905.2z"/>
	<path fill="#3F3C3A" d="M727.8,871H709v37.3c0,9.5,3.3,14.2,10,14.2c3.1,0,5.6-0.3,7.6-0.8l0.5,13c-3.4,1.3-7.8,1.9-13.3,1.9
		c-6.7,0-12-2.1-15.8-6.2s-5.7-11-5.7-20.7v-38.8h-11.2v-12.8h11.2V844l16.8-5.1V858h18.8C727.8,858.2,727.8,871,727.8,871z"/>
	<path fill="#3F3C3A" d="M812.7,896c0,11.8-3.4,21.5-10.1,29.1c-7.1,7.8-16.5,11.7-28.2,11.7c-11.3,0-20.3-3.7-27-11.2
		s-10-16.9-10-28.3c0-11.9,3.4-21.7,10.4-29.3c6.9-7.6,16.2-11.4,27.9-11.4c11.3,0,20.4,3.7,27.2,11.2
		C809.5,875.1,812.7,884.5,812.7,896z M795,896.5c0-7.1-1.5-13.2-4.6-18.2c-3.6-6.1-8.7-9.2-15.3-9.2c-6.9,0-12.1,3.1-15.7,9.2
		c-3.1,5.1-4.6,11.3-4.6,18.6c0,7.1,1.5,13.2,4.6,18.2c3.7,6.1,8.9,9.2,15.5,9.2c6.5,0,11.6-3.1,15.3-9.4
		C793.4,909.8,795,903.6,795,896.5z"/>
	<path fill="#3F3C3A" d="M868.3,873.2c-1.7-0.3-3.5-0.5-5.4-0.5c-6,0-10.7,2.3-13.9,6.8c-2.8,4-4.3,9.1-4.3,15.2V935h-17.1l0.2-52.7
		c0-8.9-0.2-16.9-0.6-24.2H842l0.6,14.7h0.5c1.8-5.1,4.6-9.1,8.5-12.2c3.8-2.7,7.9-4.1,12.3-4.1c1.6,0,3,0.1,4.3,0.3
		C868.3,856.9,868.3,873.2,868.3,873.2z"/>
	<path fill="#3F3C3A" d="M944.7,893c0,3.1-0.2,5.6-0.6,7.7h-51.3c0.2,7.6,2.7,13.4,7.4,17.4c4.3,3.6,9.9,5.4,16.8,5.4
		c7.6,0,14.5-1.2,20.7-3.6l2.7,11.9c-7.3,3.2-15.9,4.8-25.8,4.8c-11.9,0-21.3-3.5-28.1-10.5s-10.2-16.4-10.2-28.2
		c0-11.6,3.2-21.3,9.5-29c6.6-8.2,15.6-12.3,26.9-12.3c11.1,0,19.5,4.1,25.2,12.3C942.4,875.3,944.7,883.4,944.7,893z M928.4,888.5
		c0.1-5.1-1-9.4-3.3-13.1c-3-4.8-7.5-7.1-13.6-7.1c-5.6,0-10.1,2.3-13.6,7c-2.8,3.7-4.5,8.1-5.1,13.3L928.4,888.5L928.4,888.5z"/>
</g>
<g>
	<path fill="#3F3C3A" d="M312.2,762.5c0.1,2.1,0.6,3.8,1.4,5.1c1.6,2.4,4.4,3.7,8.5,3.7c1.8,0,3.5-0.3,4.9-0.8
		c2.9-1,4.3-2.9,4.3-5.6c0-2-0.6-3.4-1.8-4.3c-1.2-0.8-3.2-1.6-5.8-2.2l-4.8-1.1c-3.2-0.7-5.4-1.5-6.7-2.4c-2.3-1.5-3.4-3.8-3.4-6.9
		c0-3.3,1.1-6,3.4-8.2s5.4-3.2,9.5-3.2c3.8,0,7,0.9,9.6,2.8c2.6,1.9,4,4.9,4,9h-4.7c-0.2-2-0.8-3.5-1.5-4.6
		c-1.5-1.9-3.9-2.9-7.4-2.9c-2.8,0-4.9,0.6-6.1,1.9s-1.9,2.7-1.9,4.3c0,1.8,0.7,3.1,2.2,4c1,0.5,3.1,1.2,6.5,2l5,1.2
		c2.4,0.6,4.3,1.3,5.6,2.3c2.3,1.7,3.4,4.2,3.4,7.5c0,4.1-1.5,7-4.4,8.8c-2.9,1.8-6.3,2.6-10.1,2.6c-4.5,0-8-1.2-10.5-3.5
		c-2.5-2.3-3.8-5.5-3.7-9.5H312.2z"/>
	<path fill="#3F3C3A" d="M373.7,742.8c2.4,3.3,3.7,7.5,3.7,12.5c0,5.5-1.4,10.1-4.2,13.8c-3.3,4.3-8,6.4-14.1,6.4
		c-5.7,0-10.2-1.9-13.4-5.6c-2.9-3.6-4.4-8.2-4.4-13.7c0-5,1.2-9.3,3.7-12.8c3.2-4.6,7.9-6.8,14.1-6.8
		C365.7,736.5,370.6,738.6,373.7,742.8z M369.3,766.3c2-3.2,3-6.8,3-10.9c0-4.3-1.1-7.8-3.4-10.5c-2.3-2.7-5.4-4-9.3-4
		c-3.8,0-6.9,1.3-9.4,3.9s-3.6,6.5-3.6,11.6c0,4.1,1,7.5,3.1,10.4c2.1,2.8,5.4,4.2,10.1,4.2C364.1,771.1,367.3,769.5,369.3,766.3z"
		/>
	<path fill="#3F3C3A" d="M413.8,742.8c2.4,3.3,3.7,7.5,3.7,12.5c0,5.5-1.4,10.1-4.2,13.8c-3.3,4.3-8,6.4-14.1,6.4
		c-5.7,0-10.2-1.9-13.4-5.6c-2.9-3.6-4.4-8.2-4.4-13.7c0-5,1.2-9.3,3.7-12.8c3.2-4.6,7.9-6.8,14.1-6.8
		C405.8,736.5,410.6,738.6,413.8,742.8z M409.3,766.3c2-3.2,3-6.8,3-10.9c0-4.3-1.1-7.8-3.4-10.5c-2.3-2.7-5.4-4-9.3-4
		c-3.8,0-6.9,1.3-9.4,3.9s-3.6,6.5-3.6,11.6c0,4.1,1,7.5,3.1,10.4c2.1,2.8,5.4,4.2,10.1,4.2C404.2,771.1,407.4,769.5,409.3,766.3z"
		/>
	<path fill="#3F3C3A" d="M423.4,737.5h5.9l18.4,29.8v-29.8h4.8v36.9h-5.6l-18.7-29.8v29.8h-4.8V737.5z"/>
	<path fill="#3F3C3A" d="M482.9,737.5h5.6l13.4,36.9h-5.5l-3.9-11.1h-14.5l-4,11.1h-5.1L482.9,737.5z M491.2,759.3l-5.7-16.3
		l-5.9,16.3H491.2z"/>
	<path fill="#3F3C3A" d="M505.6,737.5l10.6,31.5l10.5-31.5h5.6l-13.5,36.9h-5.3L500,737.5H505.6z"/>
	<path fill="#3F3C3A" d="M544,737.5h5.6l13.4,36.9h-5.5l-3.9-11.1h-14.5l-4,11.1H530L544,737.5z M552.3,759.3l-5.7-16.3l-5.9,16.3
		H552.3z"/>
	<path fill="#3F3C3A" d="M568.7,737.5h5.1v36.9h-5.1V737.5z"/>
	<path fill="#3F3C3A" d="M581.8,737.5h5V770h18.5v4.4h-23.5V737.5z"/>
	<path fill="#3F3C3A" d="M621.3,737.5h5.6l13.4,36.9h-5.5l-3.9-11.1h-14.5l-4,11.1h-5.1L621.3,737.5z M629.6,759.3l-5.7-16.3
		l-5.9,16.3H629.6z"/>
	<path fill="#3F3C3A" d="M644.7,737.5h16c4.4,0,7.4,1.3,9.3,3.9c1.1,1.5,1.6,3.3,1.6,5.3c0,2.3-0.7,4.2-2,5.7
		c-0.7,0.8-1.7,1.5-3,2.2c1.9,0.7,3.3,1.5,4.2,2.4c1.7,1.6,2.5,3.8,2.5,6.7c0,2.4-0.8,4.5-2.3,6.5c-2.2,2.9-5.8,4.3-10.7,4.3h-15.7
		V737.5z M658.8,753.1c2.1,0,3.8-0.3,5-0.9c1.9-0.9,2.8-2.6,2.8-5c0-2.4-1-4-3-4.9c-1.1-0.5-2.8-0.7-5-0.7h-9v11.4H658.8z
		 M660.5,770.2c3.1,0,5.3-0.9,6.6-2.7c0.8-1.1,1.2-2.5,1.2-4.1c0-2.7-1.2-4.5-3.6-5.5c-1.3-0.5-3-0.8-5.1-0.8h-10v13H660.5z"/>
	<path fill="#3F3C3A" d="M679.2,737.5h5V770h18.5v4.4h-23.5V737.5z"/>
	<path fill="#3F3C3A" d="M708.3,737.5h26.8v4.5h-21.9v11.2h20.3v4.3h-20.3V770h22.3v4.4h-27.2V737.5z"/>
	<path fill="#3F3C3A" d="M786.9,742.8c2.4,3.3,3.7,7.5,3.7,12.5c0,5.5-1.4,10.1-4.2,13.8c-3.3,4.3-8,6.4-14.1,6.4
		c-5.7,0-10.2-1.9-13.4-5.6c-2.9-3.6-4.4-8.2-4.4-13.7c0-5,1.2-9.3,3.7-12.8c3.2-4.6,7.9-6.8,14.1-6.8
		C778.9,736.5,783.8,738.6,786.9,742.8z M782.5,766.3c2-3.2,3-6.8,3-10.9c0-4.3-1.1-7.8-3.4-10.5c-2.3-2.7-5.4-4-9.3-4
		c-3.8,0-6.9,1.3-9.4,3.9s-3.6,6.5-3.6,11.6c0,4.1,1,7.5,3.1,10.4c2.1,2.8,5.4,4.2,10.1,4.2C777.3,771.1,780.5,769.5,782.5,766.3z"
		/>
	<path fill="#3F3C3A" d="M796.5,737.5h5.9l18.4,29.8v-29.8h4.8v36.9H820l-18.7-29.8v29.8h-4.8V737.5z"/>
	<path fill="#3F3C3A" d="M874,737.5v4.4h-12.4v32.5h-5.1v-32.5H844v-4.4H874z"/>
	<path fill="#3F3C3A" d="M878.7,737.5h5.1v15.3h19v-15.3h5.1v36.9h-5.1v-17.3h-19v17.3h-5.1V737.5z"/>
	<path fill="#3F3C3A" d="M916.3,737.5h26.8v4.5h-21.9v11.2h20.3v4.3h-20.3V770h22.3v4.4h-27.2V737.5z"/>
</g>
</svg>
