<?xml version="1.0" encoding="utf-8"?>
<!-- Generator: Adobe Illustrator 18.0.0, SVG Export Plug-In . SVG Version: 6.00 Build 0)  -->
<!DOCTYPE svg PUBLIC "-//W3C//DTD SVG 1.1//EN" "http://www.w3.org/Graphics/SVG/1.1/DTD/svg11.dtd">
<svg version="1.1" id="Layer_1" xmlns="http://www.w3.org/2000/svg" xmlns:xlink="http://www.w3.org/1999/xlink" x="0px" y="0px"
	 viewBox="0 333.6 1024 356.8" enable-background="new 0 333.6 1024 356.8" xml:space="preserve">
<path fill="#3F3C3A" d="M966.1,690.4v-9.1c9.1,0,17.3-1.8,24.6-5l4.1,8.2C986.2,688.1,976.6,690.4,966.1,690.4z M938.8,690.4h-27.3
	v-9.1h27.3V690.4z M884.1,690.4h-27.3v-9.1h27.3V690.4z M829,690.4h-27.3v-9.1H829V690.4z M774.3,690.4h-27.3v-9.1h27.3V690.4z
	 M719.6,690.4h-27.3v-9.1h27.3V690.4z M664.4,690.4h-27.3v-9.1h27.3V690.4z M609.8,690.4h-27.3v-9.1h27.3V690.4z M555.1,690.4h-27.3
	v-9.1h27.3V690.4z M499.9,690.4h-27.3v-9.1h27.3V690.4z M445.2,690.4h-27.3v-9.1h27.3V690.4z M390.1,690.4h-27.3v-9.1h27.3V690.4z
	 M335.4,690.4h-27.3v-9.1h27.3V690.4z M280.7,690.4h-27.3v-9.1h27.3V690.4z M225.6,690.4h-27.3v-9.1h27.3V690.4z M170.9,690.4h-27.3
	v-9.1h27.3V690.4z M116.2,690.4H88.9v-9.1h27.3V690.4z M61.1,690.4h-0.9c-9.6,0-19.1-2.3-27.8-6.8l4.6-8.2c7.3,3.6,15,5.9,23.7,5.9
	h0.9v9.1H61.1z M1016.7,664.4l-7.7-4.6c4.1-6.8,5.9-15,5.9-23.7l9.1-0.5v0.5C1024,646.2,1021.7,655.8,1016.7,664.4z M10.5,664
	C5,655.8,1.4,646.2,0,636.6l9.1-0.9c0.9,8.2,4.1,16.4,8.7,23.2L10.5,664z M9.1,608.8H0v-27.3h9.1V608.8z M1024,607.9h-9.1v-27.3h9.1
	V607.9z M9.1,553.7H0v-27.3h9.1V553.7z M1024,553.2h-9.1v-27.3h9.1V553.2z M9.1,499H0v-27.3h9.1V499z M1024,498.6h-9.1v-27.3h9.1
	V498.6z M9.1,444.3H0V417h9.1V444.3z M1024,443.4h-9.1v-27.3h9.1V443.4z M9.1,389.6L0,388.7c0.9-9.6,4.1-19.1,9.6-27.8l7.7,5
	C12.8,373.2,10,381.4,9.1,389.6z M1014.9,389.2c-0.9-8.7-3.6-16.9-7.7-23.7l7.7-5c5,8.2,8.2,17.8,9.1,27.8L1014.9,389.2z
	 M35.5,349.1l-4.6-8.2c8.7-4.6,18.7-7.3,28.3-7.3v9.1C51,342.7,42.8,345,35.5,349.1z M988.9,348.2c-6.8-3.6-14.6-5.5-22.8-5.5h-1.4
	v-9.1h1.4c9.6,0,18.7,2.3,27.3,6.8L988.9,348.2z M937.4,342.7h-27.3v-9.1h27.3V342.7z M882.3,342.7h-27.3v-9.1h27.3V342.7z
	 M827.6,342.7h-27.3v-9.1h27.3V342.7z M772.9,342.7h-27.3v-9.1h27.3V342.7z M717.8,342.7h-27.3v-9.1h27.3V342.7z M663.1,342.7h-27.3
	v-9.1h27.3V342.7z M608.4,342.7H581v-9.1h27.3V342.7z M553.2,342.7h-27.3v-9.1h27.3V342.7z M498.6,342.7h-27.3v-9.1h27.3V342.7z
	 M443.4,342.7h-27.3v-9.1h27.3V342.7z M388.7,342.7h-27.3v-9.1h27.3V342.7z M334,342.7h-27.3v-9.1H334V342.7z M278.9,342.7h-27.3
	v-9.1h27.3V342.7z M224.2,342.7h-27.3v-9.1h27.3V342.7z M169.5,342.7h-27.3v-9.1h27.3V342.7z M114.4,342.7H87v-9.1h27.3V342.7z"/>
<g>
	<g>
		<path fill="#3F3C3A" d="M207.2,507.5c-0.2-25.8,21.1-38.4,22.1-39c-12.1-17.7-30.9-20.1-37.5-20.3c-15.8-1.7-31.1,9.4-39.1,9.4
			c-8.2,0-20.6-9.3-33.9-9c-17.1,0.3-33.2,10.2-42,25.6c-18.2,31.4-4.6,77.6,12.8,103c8.7,12.4,18.9,26.3,32.2,25.9
			c13-0.5,17.9-8.3,33.6-8.3c15.6,0,20.1,8.3,33.7,8c14-0.2,22.8-12.5,31.2-25.1c10.1-14.3,14.1-28.3,14.3-29
			C234.3,548.7,207.5,538.5,207.2,507.5z"/>
		<path fill="#3F3C3A" d="M181.6,431.6c7-8.8,11.8-20.7,10.5-32.8c-10.1,0.4-22.8,7-30.1,15.6c-6.5,7.5-12.2,19.9-10.7,31.6
			C162.6,446.8,174.3,440.2,181.6,431.6z"/>
	</g>
</g>
<g>
	<path fill="#3F3C3A" d="M395.7,601.5h-18.2l-10-31.3h-34.6l-9.5,31.3h-17.7L340,494.8h21.2L395.7,601.5z M364.5,557l-9-27.8
		c-1-2.8-2.7-9.5-5.4-20.1h-0.3c-1,4.5-2.7,11.2-5.1,20.1l-8.9,27.8H364.5z"/>
	<path fill="#3F3C3A" d="M483.9,562.1c0,13.1-3.5,23.4-10.6,31c-6.3,6.8-14.2,10.1-23.6,10.1c-10.1,0-17.4-3.6-21.8-10.9h-0.3v40.5
		h-17.1v-82.9c0-8.2-0.2-16.7-0.6-25.3h15l1,12.2h0.3c5.7-9.2,14.3-13.8,25.9-13.8c9.1,0,16.6,3.6,22.7,10.8
		C480.9,540.9,483.9,550.4,483.9,562.1z M466.5,562.7c0-7.5-1.7-13.7-5.1-18.5c-3.7-5.1-8.7-7.6-14.9-7.6c-4.2,0-8,1.4-11.5,4.2
		c-3.4,2.8-5.7,6.5-6.7,11c-0.5,2.1-0.8,3.8-0.8,5.2v12.8c0,5.6,1.7,10.3,5.1,14.2c3.4,3.9,7.9,5.8,13.4,5.8c6.4,0,11.4-2.5,15-7.4
		C464.7,577.4,466.5,570.8,466.5,562.7z"/>
	<path fill="#3F3C3A" d="M572.4,562.1c0,13.1-3.5,23.4-10.6,31c-6.3,6.8-14.2,10.1-23.6,10.1c-10.1,0-17.4-3.6-21.8-10.9h-0.3v40.5
		H499v-82.9c0-8.2-0.2-16.7-0.6-25.3h15l1,12.2h0.3c5.7-9.2,14.3-13.8,25.9-13.8c9.1,0,16.6,3.6,22.7,10.8
		C569.3,540.9,572.4,550.4,572.4,562.1z M555,562.7c0-7.5-1.7-13.7-5.1-18.5c-3.7-5.1-8.6-7.6-14.9-7.6c-4.2,0-8,1.4-11.5,4.2
		c-3.4,2.8-5.7,6.5-6.7,11c-0.5,2.1-0.8,3.8-0.8,5.2v12.8c0,5.6,1.7,10.3,5.1,14.2c3.4,3.8,7.9,5.8,13.4,5.8c6.4,0,11.4-2.5,15-7.4
		C553.2,577.4,555,570.8,555,562.7z"/>
	<path fill="#3F3C3A" d="M671.3,571.6c0,9.1-3.1,16.5-9.5,22.1c-6.9,6.2-16.6,9.3-29,9.3c-11.5,0-20.7-2.2-27.6-6.6l4-14.2
		c7.5,4.5,15.7,6.8,24.7,6.8c6.4,0,11.4-1.5,15-4.4c3.6-2.9,5.4-6.8,5.4-11.7c0-4.3-1.5-8-4.4-10.9c-2.9-3-7.9-5.7-14.7-8.2
		c-18.7-7-28-17.2-28-30.6c0-8.8,3.3-16,9.8-21.5c6.5-5.6,15.2-8.4,26.1-8.4c9.7,0,17.8,1.7,24.2,5.1l-4.3,13.9
		c-6-3.3-12.8-4.9-20.4-4.9c-6,0-10.7,1.5-14.1,4.4c-2.8,2.6-4.3,5.8-4.3,9.7c0,4.2,1.6,7.7,4.9,10.4c2.8,2.5,8,5.3,15.5,8.2
		c9.2,3.7,15.9,8,20.2,13C669.1,558,671.3,564.2,671.3,571.6z"/>
	<path fill="#3F3C3A" d="M727.8,537.4h-18.8v37.3c0,9.5,3.3,14.2,10,14.2c3.1,0,5.6-0.3,7.6-0.8l0.5,13c-3.4,1.3-7.8,1.9-13.3,1.9
		c-6.7,0-12-2.1-15.8-6.2c-3.8-4.1-5.7-11-5.7-20.7v-38.8h-11.2v-12.8h11.2v-14.1l16.8-5.1v19.1h18.8
		C727.8,524.6,727.8,537.4,727.8,537.4z"/>
	<path fill="#3F3C3A" d="M812.7,562.4c0,11.8-3.4,21.5-10.1,29.1c-7.1,7.8-16.5,11.7-28.2,11.7c-11.3,0-20.3-3.7-27-11.2
		c-6.7-7.5-10-16.9-10-28.3c0-11.9,3.4-21.7,10.4-29.3c6.9-7.6,16.2-11.4,27.9-11.4c11.3,0,20.4,3.7,27.2,11.2
		C809.5,541.5,812.7,550.9,812.7,562.4z M795,562.9c0-7.1-1.5-13.2-4.6-18.2c-3.6-6.1-8.7-9.2-15.3-9.2c-6.9,0-12.1,3.1-15.7,9.2
		c-3.1,5.1-4.6,11.3-4.6,18.6c0,7.1,1.5,13.2,4.6,18.2c3.7,6.1,8.9,9.2,15.5,9.2c6.5,0,11.6-3.1,15.3-9.4
		C793.4,576.2,795,570,795,562.9z"/>
	<path fill="#3F3C3A" d="M868.3,539.6c-1.7-0.3-3.5-0.5-5.4-0.5c-6,0-10.7,2.3-13.9,6.8c-2.8,4-4.3,9.1-4.3,15.2v40.3h-17.1
		l0.2-52.7c0-8.9-0.2-16.9-0.6-24.2H842l0.6,14.7h0.5c1.8-5.1,4.6-9.1,8.5-12.2c3.8-2.7,7.9-4.1,12.3-4.1c1.6,0,3,0.1,4.3,0.3
		C868.3,523.3,868.3,539.6,868.3,539.6z"/>
	<path fill="#3F3C3A" d="M944.7,559.4c0,3.1-0.2,5.6-0.6,7.7h-51.3c0.2,7.6,2.7,13.4,7.4,17.4c4.3,3.6,9.9,5.4,16.8,5.4
		c7.6,0,14.5-1.2,20.7-3.6l2.7,11.9c-7.3,3.2-15.9,4.8-25.8,4.8c-11.9,0-21.3-3.5-28.1-10.5c-6.8-7-10.2-16.4-10.2-28.2
		c0-11.6,3.2-21.3,9.5-29c6.6-8.2,15.6-12.3,26.9-12.3c11.1,0,19.5,4.1,25.2,12.3C942.4,541.7,944.7,549.8,944.7,559.4z
		 M928.4,554.9c0.1-5.1-1-9.4-3.3-13.1c-3-4.8-7.5-7.1-13.6-7.1c-5.6,0-10.1,2.3-13.6,7c-2.8,3.7-4.5,8.1-5.1,13.3L928.4,554.9
		L928.4,554.9z"/>
</g>
<g>
	<path fill="#3F3C3A" d="M310.7,423.4c0,6.6,4.8,9.2,10.6,9.2c6.5,0,8.9-3.2,8.9-6.5c0-3.3-1.8-4.6-3.5-5.3
		c-2.9-1.1-6.7-1.9-12.5-3.5c-7.2-2-9.3-6.4-9.3-10.9c0-8.6,7.7-12.6,15.3-12.6c8.7,0,16.1,4.7,16.1,13.7H329c-0.4-5.5-4-7.6-9-7.6
		c-3.4,0-7.7,1.3-7.7,5.6c0,3,2,4.7,5,5.5c0.6,0.2,9.9,2.6,12.1,3.3c5.5,1.7,8.2,6.5,8.2,10.9c0,9.6-8.3,13.4-16.7,13.4
		c-9.6,0-17.3-4.7-17.5-15.3H310.7z"/>
	<path fill="#3F3C3A" d="M381.8,416.2c0,12.2-7.5,22.4-20.1,22.4c-12.6,0-20.1-10.2-20.1-22.4c0-12.2,7.5-22.4,20.1-22.4
		C374.3,393.8,381.8,404,381.8,416.2z M349,416.2c0,8.2,3.8,16.3,12.7,16.3c9,0,12.7-8.1,12.7-16.3c0-8.2-3.8-16.3-12.7-16.3
		C352.8,399.9,349,408,349,416.2z"/>
	<path fill="#3F3C3A" d="M426.4,416.2c0,12.2-7.5,22.4-20.1,22.4c-12.6,0-20.1-10.2-20.1-22.4c0-12.2,7.5-22.4,20.1-22.4
		C418.9,393.8,426.4,404,426.4,416.2z M393.6,416.2c0,8.2,3.8,16.3,12.7,16.3c9,0,12.7-8.1,12.7-16.3c0-8.2-3.8-16.3-12.7-16.3
		C397.4,399.9,393.6,408,393.6,416.2z"/>
	<path fill="#3F3C3A" d="M432.8,394.8h7.7l19.1,31.6h0.1v-31.6h7v42.8H459L440,406.1h-0.2v31.5h-7V394.8z"/>
	<path fill="#3F3C3A" d="M503,394.8h7.8l16.1,42.8H519l-3.9-11.3h-16.7l-3.9,11.3h-7.6L503,394.8z M500.4,420.6h12.8l-6.3-18.4h-0.2
		L500.4,420.6z"/>
	<path fill="#3F3C3A" d="M522.5,394.8h7.6l10.5,33.9h0.1l10.7-33.9h7.5l-14.3,42.8h-8.2L522.5,394.8z"/>
	<path fill="#3F3C3A" d="M571.1,394.8h7.8l16.1,42.8h-7.9l-3.9-11.3h-16.7l-3.9,11.3H555L571.1,394.8z M568.5,420.6h12.8l-6.3-18.4
		h-0.2L568.5,420.6z"/>
	<path fill="#3F3C3A" d="M599,394.8h7.3v42.8H599V394.8z"/>
	<path fill="#3F3C3A" d="M615.3,394.8h7.3v36.4H644v6.5h-28.6V394.8z"/>
	<path fill="#3F3C3A" d="M649,394.8h7.3v36.4h21.3v6.5H649V394.8z"/>
	<path fill="#3F3C3A" d="M693.9,394.8h7.8l16.1,42.8H710l-3.9-11.3h-16.7l-3.9,11.3h-7.6L693.9,394.8z M691.3,420.6h12.8l-6.3-18.4
		h-0.2L691.3,420.6z"/>
	<path fill="#3F3C3A" d="M721.8,394.8h20.4c7.5,0,12.4,3.5,12.4,10.6c0,4.3-2.2,7.4-6,9.1v0.1c5.1,1.1,7.9,5.2,7.9,11
		c0,6.7-4.6,11.9-15.4,11.9h-19.2V394.8z M729.1,412.7h12c3.5,0,6.2-2.1,6.2-5.9c0-4.3-2.2-5.9-6.2-5.9h-12V412.7z M729.1,431.5h13
		c4.5,0,7-2.5,7-6.8c0-4.2-2.6-6.6-7-6.6h-13V431.5z"/>
	<path fill="#3F3C3A" d="M763.1,394.8h7.3v36.4h21.3v6.5h-28.6V394.8z"/>
	<path fill="#3F3C3A" d="M796.8,394.8h30.2v6.5h-22.8v11.2h21.1v6.1h-21.1v12.5h23.2v6.5h-30.6V394.8z"/>
	<path fill="#3F3C3A" d="M850.1,394.8h7.3v42.8h-7.3V394.8z"/>
	<path fill="#3F3C3A" d="M866.1,394.8h7.7l19.1,31.6h0.1v-31.6h7v42.8h-7.7l-19.1-31.5H873v31.5h-7V394.8z"/>
</g>
</svg>
