<?xml version="1.0" standalone="no"?>
<!DOCTYPE svg PUBLIC "-//W3C//DTD SVG 1.1//EN" "http://www.w3.org/Graphics/SVG/1.1/DTD/svg11.dtd">
<svg width="100%" height="100%" viewBox="0 0 2480 2480" version="1.1" xmlns="http://www.w3.org/2000/svg" xmlns:xlink="http://www.w3.org/1999/xlink" xml:space="preserve" style="fill-rule:evenodd;clip-rule:evenodd;stroke-linejoin:round;stroke-miterlimit:1.41421;">
    <g id="Layer 1">
        <g>
            <path d="M1435.18,2234.97C1062.14,2309.84 658.092,2251.85 378.679,1975.54C200.375,1799.2 140.682,1541.29 175.999,1277.18C217.616,965.893 375.891,741.01 603.26,539.407C829.32,338.961 1123.74,218.81 1413.44,215.509C1642.04,212.912 1833.66,260.276 1999.6,355.839C1999.6,355.839 2006.96,359.452 2004.87,369.004C2002.99,377.629 1977.86,393.39 1977.86,393.39C1977.86,393.39 1962.26,404.049 1933.58,411.939C1933.25,412.01 1932.89,412.09 1932.56,412.161C1907.9,416.207 1884.73,422.567 1855.03,409.725C1720.97,351.753 1557.5,311.444 1400.54,323.26C1150.07,342.111 918.855,429.109 697.525,628.71C505.13,802.223 390.716,1021.01 364.8,1244.9C338.884,1468.79 406.498,1675.69 563.656,1821.2C721.881,1967.7 937.011,2045 1206.35,2026.23C1492.33,2006.29 1752.78,1876.28 1956.63,1656.9C1982.51,1629.04 2002.39,1611.34 2050.1,1601.39C2098.49,1591.3 2138.4,1615.77 2138.4,1615.77L2279.18,1689.37C2324.47,1713.05 2326.05,1778.85 2282.86,1820.92C2065.83,2032.25 1713.92,2179.04 1435.18,2234.97" style="fill:rgb(228,107,57);fill-rule:nonzero;"/>
            <path d="M1431.21,260.631C1425.48,260.631 1419.72,260.671 1413.95,260.731C1138.28,263.871 853.711,377.772 633.256,573.236C384.128,794.143 256.932,1013.09 220.82,1283.17C184.819,1552.38 252.182,1786.84 410.487,1943.39C641.419,2171.76 935.002,2219.71 1140.63,2219.71C1234.07,2219.71 1330.18,2209.92 1426.27,2190.63C1665.73,2142.58 2025.48,2008.42 2251.31,1788.52C2266.57,1773.65 2270.27,1756.5 2268.65,1745.4C2266.99,1734.02 2260.39,1730.57 2258.22,1729.44L2114.73,1654.32C2114.72,1654.32 2096.78,1644.18 2074.03,1644.18C2069.03,1644.18 2064.08,1644.68 2059.36,1645.67C2024.71,1652.89 2012.76,1662.92 1989.75,1687.68C1775.76,1917.99 1505.94,2050.66 1209.49,2071.35C1182.02,2073.26 1154.56,2074.24 1127.89,2074.24C890.648,2074.24 690.473,2000.26 532.933,1854.39C367.401,1701.13 291.735,1482.83 319.876,1239.7C347.493,1001.14 470.854,772.233 667.234,595.126C880.543,402.762 1119.29,299.077 1397.15,278.153C1416.44,276.704 1436.34,275.969 1456.28,275.969C1624.36,275.969 1775.66,326.131 1872.98,368.221C1886.22,373.947 1898.52,372.186 1916.44,369.046L1923.37,367.858C1924.02,367.677 1924.67,367.496 1925.3,367.305C1781,295.605 1618.71,260.631 1431.21,260.631M1140.63,2310.16C821.434,2310.16 546.963,2205.56 346.889,2007.69C167.931,1830.72 91.3196,1569.17 131.165,1271.18C170.367,978.033 306.711,741.908 573.251,505.562C809.749,295.877 1115.8,173.673 1412.92,170.281C1647.5,167.604 1846.03,215.35 2021.59,316.318C2039.64,326.262 2055.45,349.42 2049.05,378.668C2047.28,386.76 2043.14,405.681 2002.41,431.366C1996.97,434.949 1977.49,446.765 1945.59,455.541L1939.87,456.789L1932.09,458.138C1920.2,460.211 1906.75,462.586 1891.56,462.586C1872.56,462.586 1854.74,458.872 1837.07,451.233C1691.82,388.42 1535.88,358.388 1403.93,368.352C1143.26,387.977 928.42,481.377 727.813,662.297C547.778,824.659 434.813,1033.42 409.722,1250.1C384.984,1463.83 450.564,1654.87 594.387,1788.02C734.667,1917.92 914.158,1983.79 1127.89,1983.79C1152.48,1983.79 1177.81,1982.89 1203.21,1981.11C1476.35,1962.06 1725.41,1839.31 1923.5,1626.11C1951.56,1595.91 1979.76,1569.86 2040.88,1557.13C2051.67,1554.87 2062.83,1553.73 2074.03,1553.73C2118.12,1553.73 2151.78,1571.31 2160.29,1576.21L2300.14,1649.28C2331.71,1665.81 2352.84,1696.07 2358.14,1732.31C2364.42,1775.29 2348.09,1820.53 2314.41,1853.32C2074.45,2086.98 1695.6,2228.84 1444.07,2279.31C1342.12,2299.78 1240.03,2310.16 1140.63,2310.16" style="fill:rgb(228,107,57);fill-rule:nonzero;"/>
        </g>
    </g>
</svg>
