<?xml version="1.0" encoding="utf-8"?>
<!-- Generator: Adobe Illustrator 18.0.0, SVG Export Plug-In . SVG Version: 6.00 Build 0)  -->
<!DOCTYPE svg PUBLIC "-//W3C//DTD SVG 1.1//EN" "http://www.w3.org/Graphics/SVG/1.1/DTD/svg11.dtd">
<svg version="1.1" id="Layer_1" xmlns="http://www.w3.org/2000/svg" xmlns:xlink="http://www.w3.org/1999/xlink" x="0px" y="0px"
	 viewBox="0 0 224.7 78.3" enable-background="new 0 0 224.7 78.3" xml:space="preserve">
<path fill="#3F3C3A" d="M212,78.3l0-2c2,0,3.8-0.4,5.4-1.1l0.9,1.8C216.4,77.8,214.3,78.3,212,78.3z M206,78.3h-6v-2h6V78.3z
	 M194,78.3h-6v-2h6V78.3z M181.9,78.3h-6v-2h6V78.3z M169.9,78.3h-6v-2h6V78.3z M157.9,78.3h-6v-2h6V78.3z M145.8,78.3h-6v-2h6V78.3
	z M133.8,78.3h-6v-2h6V78.3z M121.8,78.3h-6v-2h6V78.3z M109.7,78.3h-6v-2h6V78.3z M97.7,78.3h-6v-2h6V78.3z M85.6,78.3h-6v-2h6
	V78.3z M73.6,78.3h-6v-2h6V78.3z M61.6,78.3h-6v-2h6V78.3z M49.5,78.3h-6v-2h6V78.3z M37.5,78.3h-6v-2h6V78.3z M25.5,78.3h-6v-2h6
	V78.3z M13.4,78.3h-0.2c-2.1,0-4.2-0.5-6.1-1.5L8.1,75c1.6,0.8,3.3,1.3,5.2,1.3h0.2V78.3z M223.1,72.6l-1.7-1
	c0.9-1.5,1.3-3.3,1.3-5.2l2-0.1v0.1C224.7,68.6,224.2,70.7,223.1,72.6z M2.3,72.5c-1.2-1.8-2-3.9-2.3-6l2-0.2
	c0.2,1.8,0.9,3.6,1.9,5.1L2.3,72.5z M2,60.4H0v-6h2V60.4z M224.7,60.2h-2v-6h2V60.2z M2,48.3H0v-6h2V48.3z M224.7,48.2h-2v-6h2V48.2
	z M2,36.3H0v-6h2V36.3z M224.7,36.2h-2v-6h2V36.2z M2,24.3H0v-6h2V24.3z M224.7,24.1h-2v-6h2V24.1z M2,12.3l-2-0.2
	C0.2,10,0.9,7.9,2.1,6l1.7,1.1C2.8,8.7,2.2,10.5,2,12.3z M222.7,12.2c-0.2-1.9-0.8-3.7-1.7-5.2l1.7-1.1c1.1,1.8,1.8,3.9,2,6.1
	L222.7,12.2z M7.8,3.4l-1-1.8c1.9-1,4.1-1.6,6.2-1.6l0,2C11.2,2,9.4,2.5,7.8,3.4z M217,3.2c-1.5-0.8-3.2-1.2-5-1.2h-0.3V0h0.3
	c2.1,0,4.1,0.5,6,1.5L217,3.2z M205.7,2h-6V0h6V2z M193.6,2h-6V0h6V2z M181.6,2h-6V0h6V2z M169.6,2h-6V0h6V2z M157.5,2h-6V0h6V2z
	 M145.5,2h-6V0h6V2z M133.5,2h-6V0h6V2z M121.4,2h-6V0h6V2z M109.4,2h-6V0h6V2z M97.3,2h-6V0h6V2z M85.3,2h-6V0h6V2z M73.3,2h-6V0h6
	V2z M61.2,2h-6V0h6V2z M49.2,2h-6V0h6V2z M37.2,2h-6V0h6V2z M25.1,2h-6V0h6V2z"/>
<g>
	<g>
		<path fill="#3F3C3A" d="M153.2,55.7l-1.7,1.6c-0.4,0.2-0.8,0.5-1.2,0.6c-1.2,0.5-2.3,0.7-3.4,0.7c-1.1,0-2.9-0.1-4.7-1.4
			c-2.5-1.7-3.6-4.8-3.6-7.4c0-5.4,4.4-8.1,8-8.1c1.3,0,2.6,0.3,3.6,1c1.7,1.2,2.2,2.7,2.4,3.5l-8.2,3.3l-2.7,0.2
			c0.9,4.4,3.9,7,7.2,7C150.8,56.8,152,56.3,153.2,55.7C153.2,55.7,153.4,55.6,153.2,55.7z M148.3,46.9c0.7-0.2,1-0.5,1-0.9
			c0-1.4-1.6-3-3.5-3c-1.4,0-4,1.1-4,4.9c0,0.6,0.1,1.2,0.1,1.8L148.3,46.9z"/>
		<path fill="#3F3C3A" d="M136,55.5c0,1.4,0.2,1.6,1.4,1.7c0.6,0.1,1.2,0.1,1.8,0.2l-1.3,0.8h-6.2c0.8-1,0.9-1.2,0.9-1.9v-0.8
			l0-20.8H130l2.6-1.3h5c-1.1,0.6-1.4,1-1.5,2.2L136,55.5z"/>
		<path fill="#3F3C3A" d="M126.5,43.5c0.8,0.7,2.5,2.1,2.5,4.7c0,2.6-1.5,3.8-2.9,5c-0.5,0.5-1,0.9-1,1.7c0,0.8,0.5,1.2,0.9,1.5
			l1.3,1c1.5,1.3,2.9,2.5,2.9,4.9c0,3.3-3.2,6.6-9.2,6.6c-5.1,0-7.5-2.4-7.5-5c0-1.3,0.6-3,2.7-4.3c2.2-1.3,5.1-1.5,6.7-1.6
			c-0.5-0.6-1.1-1.3-1.1-2.4c0-0.6,0.2-0.9,0.4-1.4c-0.4,0-0.8,0.1-1.1,0.1c-3.7,0-5.8-2.8-5.8-5.5c0-1.6,0.7-3.4,2.2-4.7
			c2-1.6,4.4-1.9,6.3-1.9h7.2l-2.2,1.3H126.5z M124,59c-0.3,0-0.5,0-0.8,0c-0.3,0-2.2,0.1-3.7,0.6c-0.8,0.3-3,1.1-3,3.6
			c0,2.5,2.4,4.3,6.2,4.3c3.4,0,5.1-1.6,5.1-3.8C127.8,61.9,126.7,60.9,124,59z M125,52.4c0.8-0.8,0.9-1.9,0.9-2.6
			c0-2.5-1.5-6.4-4.4-6.4c-0.9,0-1.9,0.5-2.4,1.2c-0.6,0.7-0.8,1.7-0.8,2.6c0,2.3,1.4,6.2,4.4,6.2C123.5,53.4,124.5,53,125,52.4z"/>
		<path fill="#3F3C3A" d="M104.8,58.5c-5.6,0-8.5-4.3-8.5-8.2c0-4.6,3.7-8.5,9.1-8.5c5.1,0,8.4,4,8.4,8.3
			C113.7,54.2,110.5,58.5,104.8,58.5z M109.2,55.7c0.8-1.1,1.1-2.5,1.1-3.9c0-3.1-1.5-9-5.8-9c-1.2,0-2.3,0.5-3.2,1.2
			c-1.4,1.2-1.6,2.8-1.6,4.3c0,3.5,1.7,9.2,5.9,9.2C107,57.5,108.4,56.8,109.2,55.7z"/>
		<path fill="#3F3C3A" d="M86.2,58.5c-5.6,0-8.5-4.3-8.5-8.2c0-4.6,3.7-8.5,9.1-8.5c5.1,0,8.4,4,8.4,8.3
			C95.1,54.2,91.9,58.5,86.2,58.5z M90.6,55.7c0.8-1.1,1-2.5,1-3.9c0-3.1-1.5-9-5.8-9c-1.2,0-2.3,0.5-3.1,1.2
			c-1.4,1.2-1.6,2.8-1.6,4.3c0,3.5,1.7,9.2,5.9,9.2C88.4,57.5,89.8,56.8,90.6,55.7z"/>
		<path fill="#3F3C3A" d="M75.4,57.3l-4.7,1.1c-1.9,0.3-3.6,0.6-5.4,0.6c-9,0-12.5-6.7-12.5-11.9c0-6.4,4.9-12.3,13.2-12.3
			c1.8,0,3.5,0.3,5,0.7c2.5,0.7,3.6,1.5,4.3,2l-2.7,2.6l-1.1,0.3l0.8-1.3c-1.1-1.1-3.1-3.1-7-3.1c-5.2,0-9.1,3.9-9.1,9.7
			c0,6.2,4.5,12,11.6,12c2.1,0,3.2-0.4,4.2-0.8v-5.3l-4.9,0.3l2.6-1.4h6.9l-0.8,0.8c-0.2,0.2-0.3,0.3-0.3,0.5c0,0.3-0.1,1.2-0.1,1.6
			V57.3z"/>
	</g>
	<g>
		<path fill="#3F3C3A" d="M163.3,55.9v8.9h-1.8V42.1h1.8v2.6c1.2-1.7,3.3-3,5.7-3c4.4,0,7.3,3.3,7.3,8.6c0,5.2-3,8.6-7.3,8.6
			C166.7,59,164.6,57.8,163.3,55.9z M174.4,50.3c0-4-2.1-7-5.7-7c-2.3,0-4.5,1.8-5.4,3.4v7.3c0.9,1.6,3.1,3.4,5.4,3.4
			C172.4,57.4,174.4,54.3,174.4,50.3z"/>
		<path fill="#3F3C3A" d="M178.8,58.5V35.9h1.8v22.7H178.8z"/>
		<path fill="#3F3C3A" d="M200.4,63.3c0.4,0.2,1,0.3,1.4,0.3c1.1,0,1.8-0.4,2.5-2l1.3-2.9l-7-16.5h2l6,14.3l5.9-14.3h2l-8.5,20
			c-0.9,2.1-2.3,3.1-4.2,3.1c-0.6,0-1.3-0.1-1.8-0.2L200.4,63.3z"/>
		<path fill="#3F3C3A" d="M195.2,58.5c-0.1-0.6-0.2-1.1-0.3-1.5c-0.1-0.4-0.1-0.8-0.1-1.3c-0.6,0.9-1.5,1.6-2.6,2.2
			c-1.1,0.6-2.1,0.9-3.6,0.9c-1.7,0-3.1-0.4-4-1.3c-1-0.9-1.4-2-1.4-3.5c0-1.5,0.7-2.7,2.1-3.6c1.4-0.9,3.2-1.4,5.4-1.4h4.1v-2
			c0-1.2-0.4-2.1-1.2-2.8c-0.8-0.7-1.9-1-3.4-1c-1.3,0-2.4,0.3-3.2,0.9c-0.8,0.6-1.2,1.4-1.2,2.3H184l0-0.1
			c-0.1-1.2,0.5-2.3,1.7-3.3c1.2-0.9,2.8-1.4,4.7-1.4c1.9,0,3.5,0.5,4.7,1.4c1.2,0.9,1.8,2.2,1.8,4v8.1c0,0.6,0,1.1,0.1,1.7
			c0.1,0.5,0.2,1.1,0.4,1.6H195.2z M188.9,57.2c1.5,0,2.6-0.3,3.7-1c1.1-0.7,1.8-1.5,2.2-2.6v-3.2h-4.1c-1.6,0-2.9,0.4-3.9,1.1
			c-1,0.7-1.6,1.6-1.6,2.5c0,0.9,0.3,1.7,1,2.3C186.9,56.9,187.8,57.2,188.9,57.2z"/>
	</g>
</g>
<g>
	<polygon fill="none" points="29.8,49.4 35.4,43.7 35.4,43.7 29.8,49.4 11.6,31.3 11.6,31.3 29.8,49.4 11.6,67.5 11.6,67.5 
		29.8,49.4 35.5,55.1 35.5,55.1 	"/>
	<path fill="#615E5C" d="M35.4,43.7L13.3,31.6c-0.6-0.3-1.2-0.4-1.7-0.3l18.1,18.1L35.4,43.7z"/>
	<path fill="#766F6B" d="M35.5,55.1L43,51c1.5-0.8,1.5-2.2,0-3.1l-7.6-4.2l-5.7,5.7L35.5,55.1z"/>
	<path fill="#3F3C3A" d="M11.6,31.3c-0.7,0.2-1.1,0.9-1.1,1.9l0,32.4c0,1,0.4,1.7,1.1,1.9l18.1-18.1L11.6,31.3z"/>
	<path fill="#332A25" d="M11.6,67.5c0.5,0.2,1.1,0.1,1.7-0.3l22.1-12.2l-5.7-5.7L11.6,67.5z"/>
</g>
<g>
	<path fill="#3F3C3A" d="M60.9,20.8c-0.1,1.1-0.4,1.9-1.1,2.4c-0.6,0.6-1.5,0.9-2.7,0.9s-2.1-0.4-2.8-1.1c-0.7-0.7-1-1.7-1-2.9v-1.9
		c0-1.2,0.3-2.1,1-2.9c0.7-0.7,1.6-1.1,2.7-1.1c1.2,0,2.1,0.3,2.7,0.9s1,1.4,1.1,2.5H59c-0.1-0.6-0.2-1.1-0.5-1.4
		c-0.3-0.3-0.7-0.5-1.4-0.5c-0.6,0-1,0.2-1.4,0.7c-0.3,0.5-0.5,1.1-0.5,1.8v1.9c0,0.8,0.2,1.4,0.5,1.8c0.3,0.5,0.8,0.7,1.4,0.7
		s1.1-0.1,1.4-0.4c0.3-0.3,0.5-0.8,0.5-1.4H60.9z"/>
	<path fill="#3F3C3A" d="M70,20.1c0,1.2-0.4,2.2-1.1,2.9c-0.7,0.8-1.7,1.1-2.9,1.1c-1.2,0-2.2-0.4-2.9-1.1c-0.7-0.8-1.1-1.7-1.1-2.9
		v-1.7c0-1.2,0.4-2.2,1.1-2.9s1.7-1.1,2.9-1.1c1.2,0,2.2,0.4,2.9,1.1c0.7,0.8,1.1,1.7,1.1,2.9V20.1z M68.1,18.3
		c0-0.7-0.2-1.4-0.6-1.8c-0.4-0.5-0.9-0.7-1.5-0.7s-1.2,0.2-1.5,0.7c-0.4,0.5-0.5,1.1-0.5,1.8v1.7c0,0.8,0.2,1.4,0.5,1.9
		c0.4,0.5,0.9,0.7,1.5,0.7c0.7,0,1.2-0.2,1.5-0.7c0.4-0.5,0.5-1.1,0.5-1.9V18.3z"/>
	<path fill="#3F3C3A" d="M74.1,14.4l2.5,7.1h0l2.5-7.1h2.5V24h-1.9v-2.9l0.2-4.3l0,0L77.2,24h-1.3l-2.6-7.1l0,0l0.2,4.3V24h-1.9
		v-9.6H74.1z"/>
	<path fill="#3F3C3A" d="M85.4,24h-1.9v-9.6h1.9V24z"/>
	<path fill="#3F3C3A" d="M95,24h-1.9l-3.9-6.6l0,0V24h-1.9v-9.6h1.9l3.9,6.6l0,0v-6.6H95V24z"/>
	<path fill="#3F3C3A" d="M104.2,22.8c-0.3,0.4-0.7,0.7-1.3,1c-0.6,0.3-1.4,0.4-2.3,0.4c-1.2,0-2.2-0.4-2.9-1.1
		c-0.7-0.7-1.1-1.7-1.1-2.9v-2c0-1.2,0.4-2.1,1.1-2.8c0.7-0.7,1.6-1.1,2.8-1.1c1.2,0,2.1,0.3,2.7,0.8c0.6,0.5,1,1.3,1.1,2.3h-1.9
		c-0.1-0.5-0.3-0.9-0.6-1.2c-0.3-0.3-0.7-0.4-1.3-0.4c-0.6,0-1.1,0.2-1.4,0.7c-0.4,0.4-0.5,1-0.5,1.8v2c0,0.7,0.2,1.3,0.5,1.8
		c0.4,0.4,0.9,0.7,1.5,0.7c0.5,0,0.8,0,1.1-0.1c0.3-0.1,0.5-0.2,0.6-0.3v-1.7h-1.7v-1.3h3.6V22.8z"/>
	<path fill="#3F3C3A" d="M114.3,21.5c0-0.4-0.1-0.7-0.4-0.9c-0.3-0.2-0.7-0.4-1.4-0.6c-1.2-0.3-2-0.7-2.6-1.2
		c-0.6-0.4-0.9-1.1-0.9-1.9c0-0.8,0.3-1.4,1-1.9c0.7-0.5,1.5-0.7,2.6-0.7c1.1,0,1.9,0.3,2.6,0.8c0.7,0.6,1,1.3,1,2.1h-1.9
		c0-0.5-0.1-0.8-0.4-1.1c-0.3-0.3-0.7-0.4-1.2-0.4c-0.5,0-0.9,0.1-1.2,0.3c-0.3,0.2-0.4,0.5-0.4,0.9c0,0.3,0.1,0.6,0.4,0.8
		c0.3,0.2,0.8,0.4,1.6,0.7c1.1,0.3,1.9,0.7,2.4,1.2c0.5,0.5,0.8,1.1,0.8,1.9c0,0.8-0.3,1.5-1,2c-0.6,0.5-1.5,0.7-2.6,0.7
		c-1.1,0-2-0.3-2.7-0.8c-0.8-0.5-1.2-1.3-1.2-2.3h1.9c0,0.6,0.2,1,0.5,1.3c0.3,0.3,0.8,0.4,1.5,0.4c0.5,0,0.9-0.1,1.2-0.3
		C114.2,22.2,114.3,21.9,114.3,21.5z"/>
	<path fill="#3F3C3A" d="M125.4,20.1c0,1.2-0.4,2.2-1.1,2.9c-0.7,0.8-1.7,1.1-2.9,1.1c-1.2,0-2.2-0.4-2.9-1.1
		c-0.7-0.8-1.1-1.7-1.1-2.9v-1.7c0-1.2,0.4-2.2,1.1-2.9c0.7-0.8,1.7-1.1,2.9-1.1c1.2,0,2.2,0.4,2.9,1.1s1.1,1.7,1.1,2.9V20.1z
		 M123.4,18.3c0-0.7-0.2-1.4-0.6-1.8c-0.4-0.5-0.9-0.7-1.5-0.7c-0.7,0-1.2,0.2-1.5,0.7c-0.4,0.5-0.5,1.1-0.5,1.8v1.7
		c0,0.8,0.2,1.4,0.5,1.9c0.4,0.5,0.9,0.7,1.5,0.7c0.7,0,1.2-0.2,1.5-0.7c0.4-0.5,0.5-1.1,0.5-1.9V18.3z"/>
	<path fill="#3F3C3A" d="M134.7,20.1c0,1.2-0.4,2.2-1.1,2.9c-0.7,0.8-1.7,1.1-2.9,1.1c-1.2,0-2.2-0.4-2.9-1.1
		c-0.7-0.8-1.1-1.7-1.1-2.9v-1.7c0-1.2,0.4-2.2,1.1-2.9c0.7-0.8,1.7-1.1,2.9-1.1c1.2,0,2.2,0.4,2.9,1.1c0.7,0.8,1.1,1.7,1.1,2.9
		V20.1z M132.7,18.3c0-0.7-0.2-1.4-0.6-1.8c-0.4-0.5-0.9-0.7-1.5-0.7c-0.7,0-1.2,0.2-1.5,0.7s-0.5,1.1-0.5,1.8v1.7
		c0,0.8,0.2,1.4,0.5,1.9c0.4,0.5,0.9,0.7,1.5,0.7c0.7,0,1.2-0.2,1.5-0.7c0.4-0.5,0.5-1.1,0.5-1.9V18.3z"/>
	<path fill="#3F3C3A" d="M144,24H142l-3.9-6.6l0,0V24h-1.9v-9.6h1.9L142,21l0,0v-6.6h1.9V24z"/>
	<path fill="#3F3C3A" d="M156.9,20.1c0,1.2-0.4,2.2-1.1,2.9c-0.7,0.8-1.7,1.1-2.9,1.1c-1.2,0-2.2-0.4-2.9-1.1
		c-0.7-0.8-1.1-1.7-1.1-2.9v-1.7c0-1.2,0.4-2.2,1.1-2.9c0.7-0.8,1.7-1.1,2.9-1.1c1.2,0,2.2,0.4,2.9,1.1c0.7,0.8,1.1,1.7,1.1,2.9
		V20.1z M154.9,18.3c0-0.7-0.2-1.4-0.6-1.8c-0.4-0.5-0.9-0.7-1.5-0.7c-0.7,0-1.2,0.2-1.5,0.7c-0.4,0.5-0.5,1.1-0.5,1.8v1.7
		c0,0.8,0.2,1.4,0.5,1.9c0.4,0.5,0.9,0.7,1.5,0.7c0.7,0,1.2-0.2,1.5-0.7c0.4-0.5,0.5-1.1,0.5-1.9V18.3z"/>
	<path fill="#3F3C3A" d="M166.2,24h-1.9l-3.9-6.6l0,0V24h-1.9v-9.6h1.9l3.9,6.6l0,0v-6.6h1.9V24z"/>
</g>
</svg>
