<?xml version="1.0" encoding="utf-8"?>
<!-- Generator: Adobe Illustrator 18.0.0, SVG Export Plug-In . SVG Version: 6.00 Build 0)  -->
<!DOCTYPE svg PUBLIC "-//W3C//DTD SVG 1.1//EN" "http://www.w3.org/Graphics/SVG/1.1/DTD/svg11.dtd">
<svg version="1.1" id="Layer_1" xmlns="http://www.w3.org/2000/svg" xmlns:xlink="http://www.w3.org/1999/xlink" x="0px" y="0px"
	 viewBox="0 0 1024 1024" enable-background="new 0 0 1024 1024" xml:space="preserve">
<g>
	<path fill="#E46B38" d="M829.4,952.3H194.6C128,952.3,71.7,896,71.7,829.4V194.6C71.7,128,128,71.7,194.6,71.7h640
		c66.6,0,122.9,56.3,122.9,122.9v640C952.3,901.1,901.1,952.3,829.4,952.3z"/>
	<path fill="#E46B38" d="M829.4,972.3H194.6c-77.4,0-142.9-65.4-142.9-142.9V194.6c0-77.4,65.4-142.9,142.9-142.9h640
		c77.4,0,142.9,65.4,142.9,142.9v640.8l-0.1,0.8c-2.9,37.7-19,72.1-45.3,96.9C905.2,958.3,868.7,972.3,829.4,972.3z M194.6,91.7
		c-26.8,0-52.5,10.9-72.3,30.6s-30.6,45.4-30.6,72.3v634.9c0,26.8,10.9,52.5,30.6,72.3s45.4,30.6,72.3,30.6h634.9
		c58.9,0,103.2-40.5,108-98.6V194.6c0-26.8-10.9-52.5-30.6-72.3s-45.4-30.6-72.3-30.6H194.6z"/>
</g>
<path fill="#FFFFFF" d="M512,639.5c-5.3,0-10.4-2.1-14.1-5.9l-215-215c-7.8-7.8-7.8-20.5,0-28.3c7.8-7.8,20.5-7.8,28.3,0L512,591.2
	l200.9-200.9c7.8-7.8,20.5-7.8,28.3,0c7.8,7.8,7.8,20.5,0,28.3l-215,215C522.4,637.4,517.3,639.5,512,639.5z"/>
</svg>
