<?xml version="1.0" encoding="utf-8"?>
<!-- Generator: Adobe Illustrator 18.0.0, SVG Export Plug-In . SVG Version: 6.00 Build 0)  -->
<!DOCTYPE svg PUBLIC "-//W3C//DTD SVG 1.1//EN" "http://www.w3.org/Graphics/SVG/1.1/DTD/svg11.dtd">
<svg version="1.1" id="Layer_1" xmlns="http://www.w3.org/2000/svg" xmlns:xlink="http://www.w3.org/1999/xlink" x="0px" y="0px"
	 viewBox="0 0 320 320" enable-background="new 0 0 320 320" xml:space="preserve">
<g>
	<path fill="#414042" d="M36.8,251.9c-12.9,0-19.3,9.2-19.3,24.7c0,16.1,5.3,26,19.5,25.7c2.9,0,5.5-0.3,7.5-0.9
		c1.8-0.6,2.1-1.4,2.1-3.4v-8.2l10.4,0.7v17.7c-5.6,3-13.7,4.2-20.3,4.2c-20.8,0-32.1-11.7-32.1-35c0-26.7,16.4-35.6,32.1-35.6
		c6,0,13.1,1.3,19.2,4.2v17.4L45.6,264v-8c0-1.9-0.3-2.8-2.1-3.4C41.5,252.1,38.8,251.9,36.8,251.9z"/>
	<path fill="#414042" d="M83.9,302.5l5.8,0.3v8.2H65.3v-7.8l3.4-0.3c1.8-0.2,3-0.8,3-3.3v-50.4c0-1.8-1-2.4-2.6-2.5l-3.6-0.2v-8.5
		h18.3V302.5z"/>
	<path fill="#414042" d="M114.6,302.5l5.8,0.3v8.2H96v-7.8l3.4-0.3c1.8-0.2,3-0.8,3-3.3v-28.4c0-2.3-0.6-3-2.6-3l-3.6-0.2v-8.5h18.3
		V302.5z M107.4,237.6c4.5,0,7.8,3.4,7.8,7.7s-3.3,7.5-7.9,7.5c-4.7,0-7.8-3.2-7.8-7.5S102.6,237.6,107.4,237.6z"/>
	<path fill="#414042" d="M163.7,298.6l4.4,7.9c-4,3.3-10.2,5.9-17.8,5.9c-15,0-23.9-9.5-23.9-26.5c0-20.8,12.8-27.9,24.3-27.9
		c6.1,0,11,1.5,16,4.2v13.3l-9.4,0.7v-4.9c0-1.9-0.3-2.9-2.1-3.5c-1.2-0.4-2.5-0.6-4-0.6c-8.2,0-12.4,6.1-12.4,17.5
		c0,11.2,4.1,18.3,13.2,18.3C155.9,303,159.5,301.7,163.7,298.6z"/>
	<path fill="#414042" d="M180.3,249.7c0-2.3-0.6-2.9-2.6-3l-3.6-0.2v-8.5h18.2v44.3c7.3-0.7,13.4-4.6,15.6-11.3
		c0.8-2.5-0.2-3.4-1.6-3.4l-3.9-0.2v-8h21.2v8.3l-4.9,0.2c-0.9,7.1-3.7,12.3-9,16.5l10,18l6.2,0.3v8.2H211l-11.7-21.3
		c-2.1,0.6-4.6,1.1-7,1.4v11.4h0.1l5.8,0.3v8.2H174v-7.8l3.4-0.3c1.9-0.2,3-0.8,3-3.4V249.7z"/>
	<path fill="#414042" d="M249.4,302.5l5.8,0.3v8.2h-24.3v-7.8l3.4-0.3c1.8-0.2,3-0.8,3-3.3v-28.4c0-2.3-0.6-3-2.6-3l-3.6-0.2v-8.5
		h18.3V302.5z M242.2,237.6c4.5,0,7.8,3.4,7.8,7.7s-3.3,7.5-7.9,7.5c-4.7,0-7.8-3.2-7.8-7.5S237.4,237.6,242.2,237.6z"/>
	<path fill="#414042" d="M260.5,259.5h17.3v6.6c3.6-5.1,9.8-8.2,16.6-8.2c10.2,0,16.3,5.7,16.3,17.8v26.7l5.8,0.3v8.2h-24.3v-7.8
		l3.4-0.3c1.9-0.2,3-0.8,3-3.4v-21.1c0-6.8-1.4-11-8.4-11c-6.8,0-10.5,5-10.5,10.3v24.8l5.8,0.3v8.2h-24.3v-7.8l3.4-0.3
		c1.9-0.2,3-0.8,3-3.4v-28.3c0-2.3-0.7-3.1-2.6-3.2l-4.3-0.3V259.5z"/>
</g>
<g>
	<path fill="#E36A39" d="M181.5,205.4c-35.6,7.1-74.1,1.6-100.8-24.7c-17-16.8-22.7-41.4-19.3-66.6c4-29.7,19.1-51.1,40.7-70.4
		c21.6-19.1,49.6-30.6,77.3-30.9c21.8-0.2,40.1,4.3,55.9,13.4c0,0,0.7,0.3,0.5,1.3c-0.2,0.8-2.6,2.3-2.6,2.3s-1.5,1-4.2,1.8
		c0,0-0.1,0-0.1,0c-2.4,0.4-4.6,1-7.4-0.2c-12.8-5.5-28.4-9.4-43.3-8.2c-23.9,1.8-45.9,10.1-67,29.1C92.8,68.8,81.9,89.6,79.4,111
		c-2.5,21.4,4,41.1,19,55c15.1,14,35.6,21.3,61.3,19.6c27.3-1.9,52.1-14.3,71.6-35.2c2.5-2.7,4.4-4.3,8.9-5.3c4.6-1,8.4,1.4,8.4,1.4
		l13.4,7c4.3,2.3,4.5,8.5,0.3,12.5C241.7,186.1,208.1,200.1,181.5,205.4z"/>
	<path fill="#E36A39" d="M153.4,212.6c-30.4,0-56.6-10-75.7-28.8c-17.1-16.9-24.4-41.8-20.6-70.2c3.7-28,16.7-50.5,42.2-73
		c22.6-20,51.7-31.7,80.1-32c22.4-0.3,41.3,4.3,58,13.9c1.7,0.9,3.2,3.2,2.6,5.9c-0.2,0.8-0.6,2.6-4.4,5c-0.5,0.3-2.4,1.5-5.4,2.3
		l-0.5,0.1l-0.7,0.1c-1.1,0.2-2.4,0.4-3.9,0.4c-1.8,0-3.5-0.4-5.2-1.1c-13.9-6-28.7-8.9-41.3-7.9c-24.9,1.9-45.3,10.8-64.5,28
		c-17.2,15.5-27.9,35.4-30.3,56.1c-2.4,20.4,3.9,38.6,17.6,51.3c13.4,12.4,30.5,18.7,50.9,18.7c2.3,0,4.8-0.1,7.2-0.3
		c26-1.8,49.8-13.5,68.7-33.9c2.7-2.9,5.4-5.4,11.2-6.6c1-0.2,2.1-0.3,3.2-0.3c4.2,0,7.4,1.7,8.2,2.1l13.3,7c3,1.6,5,4.5,5.5,7.9
		c0.6,4.1-1,8.4-4.2,11.5c-22.9,22.3-59,35.8-83,40.6C172.6,211.6,162.9,212.6,153.4,212.6z M181.1,17.1c-0.5,0-1.1,0-1.6,0
		c-26.3,0.3-53.4,11.2-74.5,29.8C81.3,68,69.1,88.9,65.7,114.6c-3.4,25.7,3,48,18.1,63c22,21.8,50,26.4,69.6,26.4
		c8.9,0,18.1-0.9,27.2-2.8c22.8-4.6,57.1-17.4,78.7-38.3c1.5-1.4,1.8-3.1,1.7-4.1c-0.2-1.1-0.8-1.4-1-1.5l-13.7-7.2l0,0
		c0,0-1.7-1-3.9-1c-0.5,0-0.9,0-1.4,0.1c-3.3,0.7-4.4,1.6-6.6,4c-20.4,22-46.1,34.6-74.4,36.6c-2.6,0.2-5.2,0.3-7.8,0.3
		c-22.6,0-41.7-7.1-56.7-21c-15.8-14.6-23-35.4-20.3-58.6c2.6-22.8,14.4-44.6,33.1-61.5c20.3-18.3,43.1-28.2,69.6-30.2
		c1.8-0.1,3.7-0.2,5.6-0.2c16,0,30.5,4.8,39.7,8.8c1.3,0.5,2.4,0.4,4.1,0.1l0.7-0.1c0.1,0,0.1,0,0.2-0.1
		C214.5,20.4,199,17.1,181.1,17.1z"/>
</g>
</svg>
