<?xml version="1.0" encoding="utf-8"?>
<!-- Generator: Adobe Illustrator 18.0.0, SVG Export Plug-In . SVG Version: 6.00 Build 0)  -->
<!DOCTYPE svg PUBLIC "-//W3C//DTD SVG 1.1//EN" "http://www.w3.org/Graphics/SVG/1.1/DTD/svg11.dtd">
<svg version="1.1" id="Layer_1" xmlns="http://www.w3.org/2000/svg" xmlns:xlink="http://www.w3.org/1999/xlink" x="0px" y="0px"
	 viewBox="0 0 512 512" enable-background="new 0 0 512 512" xml:space="preserve">
<g>
	<path fill="#3F3C3A" d="M232.7,123.9c11.4-10.9,27.6-14.5,42.9-15c16.2-0.1,32.3-0.1,48.5-0.1c0.1,17.1,0.1,34.1,0,51.2
		c-10.5,0-20.9,0-31.4,0c-6.6-0.4-13.4,4.6-14.6,11.2c-0.2,11.4-0.1,22.8-0.1,34.3c15.3,0.1,30.7,0,46,0c-1.1,16.5-3.2,33-5.6,49.3
		c-13.5,0.1-27.1,0-40.6,0.1c-0.1,48.7,0.1,97.4-0.1,146.1c-20.1,0.1-40.2,0-60.3,0.1c-0.4-48.7,0-97.5-0.2-146.2
		c-9.8-0.1-19.6,0.1-29.4-0.1c0-16.4,0-32.7,0-49.1c9.8-0.1,19.6,0,29.4-0.1c0.3-15.9-0.3-31.9,0.3-47.8
		C218.5,145.3,223.3,132.6,232.7,123.9z"/>
</g>
<path fill="#3F3C3A" d="M256,510c-68.1,0-132.1-26.5-180.3-74.7S1,323.1,1,255c0-68.1,26.5-132.1,74.7-180.3S187.9,0,256,0
	c68.1,0,132.1,26.5,180.3,74.7S511,186.9,511,255c0,68.1-26.5,132.1-74.7,180.3S324.1,510,256,510z M256,43.8
	C139.5,43.8,44.8,138.5,44.8,255c0,116.5,94.8,211.2,211.2,211.2c116.5,0,211.2-94.8,211.2-211.2C467.2,138.5,372.5,43.8,256,43.8z"
	/>
</svg>
