<?xml version="1.0" encoding="utf-8"?>
<!-- Generator: Adobe Illustrator 18.0.0, SVG Export Plug-In . SVG Version: 6.00 Build 0)  -->
<!DOCTYPE svg PUBLIC "-//W3C//DTD SVG 1.1//EN" "http://www.w3.org/Graphics/SVG/1.1/DTD/svg11.dtd">
<svg version="1.1" id="Layer_1" xmlns="http://www.w3.org/2000/svg" xmlns:xlink="http://www.w3.org/1999/xlink" x="0px" y="0px"
	 viewBox="0 0 512 512" enable-background="new 0 0 512 512" xml:space="preserve">
<path fill="#3F3C3A" d="M256,510c-68.1,0-132.1-26.5-180.3-74.7S1,323.1,1,255c0-68.1,26.5-132.1,74.7-180.3S187.9,0,256,0
	c68.1,0,132.1,26.5,180.3,74.7S511,186.9,511,255c0,68.1-26.5,132.1-74.7,180.3S324.1,510,256,510z M256,43.8
	C139.5,43.8,44.8,138.5,44.8,255c0,116.5,94.8,211.2,211.2,211.2c116.5,0,211.2-94.8,211.2-211.2C467.2,138.5,372.5,43.8,256,43.8z"
	/>
<path fill="#3F3C3A" d="M369.7,198.3c4.8,91.6-65.5,169.7-157.1,174.5c-34.4,1.8-68.4-7.1-97.5-25.5c29.7,2,59.2-7.1,82.6-25.5
	c-22.8-2.7-42-18.3-49.4-40c8.8,1.4,17.8,0.8,26.4-1.7c-27.3-5.1-47.4-28.5-48.5-56.2c7.6,3,15.7,4.5,23.8,4.3
	c-23.5-18.2-30-50.8-15.3-76.6c29.6,36.5,73.2,58.8,120.1,61.3c-9.3-30.1,7.6-62.1,37.8-71.3c22.2-6.8,46.4,0.5,61,18.5
	c13-2.3,25.5-7.3,36.6-14.5c-4.2,13.8-13.7,25.4-26.4,32.4c11.5-1.2,22.8-4.3,33.2-9.4C391.9,181.5,382.2,192.1,369.7,198.3z"/>
</svg>
